:SAMPLES-PER-SECOND 30
:FULLY-SPECIFIED
:DEGREES
267
root  -1.37064 36.7866 0.547869 -59.9459 -86.5781 57.1628
RightUpLeg  -25.9055 -32.8043 -6.30536
RightLeg  62.2255 0.044322 -0.53605
RightFoot  -5.89483 -0.737332 14.6661
RightToes  -1.33073e-015 0 -3.6325e-017
Spine  24.8528 -0.672984 -1.7973
Spine1  -15.6846 -0.973451 -0.584011
HEad  -4.73635 4.7436 -2.13294
LeftShoulder1  0.77617 -0.190155 -14.6289
LeftArm  -49.8345 3.67989 -26.6882
LeftForeArm  74.5334 -76.9161 -115.932
LeftHand  0.255703 6.04871 40.4826
RightShoulder  0.659967 -0.360272 14.5505
RightArm  -59.7237 -15.3292 22.8119
RightForeArm  26.3723 77.652 78.4334
RightHand  -2.36114 2.5525 -33.8051
LeftUpLeg  -20.1092 25.8275 6.64077
LeftLeg  44.1799 -3.27178 -2.99316
LeftFoot  -13.6854 -0.175482 -12.5253
LeftToes  -4.0021e-011 8.38769e-011 -3.99229e-011
268
root  -1.76926 38.4076 0.267338 -49.5103 -87.9448 47.8742
RightUpLeg  -21.8163 -33.8092 -8.40497
RightLeg  51.7169 0.631521 0.779297
RightFoot  -6.24221 -0.705242 14.814
RightToes  -1.33073e-015 0 -3.6325e-017
Spine  22.1209 -0.398165 0.12211
Spine1  -15.8451 -0.373894 -0.232683
HEad  -3.90614 5.12673 -2.19236
LeftShoulder1  1.26069 -1.49341 -18.8355
LeftArm  -47.2955 9.61092 -29.0292
LeftForeArm  63.8483 -77.4999 -108.303
LeftHand  0.0811156 5.57749 39.4078
RightShoulder  0.952631 0.437481 17.7887
RightArm  -60.2218 -20.0776 25.5793
RightForeArm  27.3647 77.6962 80.0671
RightHand  -2.36473 2.87566 -32.6097
LeftUpLeg  -15.1792 25.3011 8.07125
LeftLeg  32.7554 -2.79162 -1.56622
LeftFoot  -7.17608 0.556102 -13.9483
LeftToes  -4.0021e-011 8.38769e-011 -3.99229e-011
269
root  -2.05905 39.6244 -0.056242 -32.2951 -89.2798 32.0866
RightUpLeg  -17.4953 -30.9141 -10.0899
RightLeg  38.1955 -7.19173 -6.02046
RightFoot  -10.2406 -0.203833 13.5659
RightToes  -1.33073e-015 0 -3.6325e-017
Spine  18.7477 0.113608 1.98861
Spine1  -14.7253 0.359219 0.123854
HEad  -4.13438 5.15779 -2.63132
LeftShoulder1  1.16763 -1.28513 -17.7237
LeftArm  -46.0784 10.9754 -30.9039
LeftForeArm  57.6463 -77.6045 -105.17
LeftHand  -0.140191 4.92593 36.7156
RightShoulder  0.806438 -0.0625793 16.8354
RightArm  -62.0974 -21.987 27.962
RightForeArm  32.8593 77.8312 86.4458
RightHand  -2.31232 3.17167 -30.8806
LeftUpLeg  -11.4334 24.2256 9.21974
LeftLeg  22.5693 -1.0815 -0.210004
LeftFoot  -0.380603 1.50452 -15.5741
LeftToes  -4.0021e-011 8.38769e-011 -3.99229e-011
270
root  -2.23031 40.2773 -0.448572 -11.795 -89.6638 12.666
RightUpLeg  -13.3047 -25.3264 -12.5657
RightLeg  25.5864 -21.7732 -11.0374
RightFoot  -10.1939 -0.154125 9.45791
RightToes  -1.33073e-015 0 -3.6325e-017
Spine  15.8511 0.341758 2.64895
Spine1  -13.3031 0.584238 0.463111
HEad  -4.30712 5.06569 -2.80221
LeftShoulder1  0.826681 -0.350624 -14.5219
LeftArm  -46.4453 7.71937 -28.6187
LeftForeArm  56.9194 -77.5719 -105.355
LeftHand  -0.313525 4.31462 33.7166
RightShoulder  0.538983 -0.902913 13.9378
RightArm  -63.7705 -20.2532 26.8284
RightForeArm  37.0017 77.8546 90.9048
RightHand  -2.22589 2.93446 -30.5952
LeftUpLeg  -9.02541 21.5677 9.7725
LeftLeg  15.522 2.80668 0.729044
LeftFoot  4.71901 2.31831 -16.581
LeftToes  -4.0021e-011 8.38769e-011 -3.99229e-011
271
root  -2.27805 40.3703 -0.939483 -23.9515 -88.789 25.7587
RightUpLeg  -10.2093 -19.1268 -15.7475
RightLeg  16.8049 -32.3927 -9.56041
RightFoot  -8.5614 -0.243388 7.42203
RightToes  -1.33073e-015 0 -3.6325e-017
Spine  14.962 0.180297 1.54291
Spine1  -14.2847 0.21838 1.57434
HEad  -3.2571 4.85555 -2.32526
LeftShoulder1  0.453987 0.870414 -9.77743
LeftArm  -48.8255 1.6105 -23.4009
LeftForeArm  47.9602 -77.8893 -96.9295
LeftHand  -0.367694 4.05368 31.7423
RightShoulder  0.32356 -1.64696 10.2873
RightArm  -64.8394 -16.0223 21.5165
RightForeArm  29.2051 77.7592 83.9525
RightHand  -2.15781 2.52457 -31.1528
LeftUpLeg  -9.16002 19.0226 9.44039
LeftLeg  13.4101 6.41813 1.10288
LeftFoot  6.27289 2.50035 -16.2841
LeftToes  -4.0021e-011 8.38769e-011 -3.99229e-011
272
root  -2.0895 39.9027 -1.47023 -11.4348 -87.827 13.9872
RightUpLeg  -10.6004 -18.4048 -16.9552
RightLeg  15.3347 -30.6048 -7.61345
RightFoot  -9.37985 -0.230238 10.1382
RightToes  -1.33073e-015 0 -3.6325e-017
Spine  17.3878 -0.0102394 0.685872
Spine1  -18.6147 -0.0596099 2.63005
HEad  -2.41283 4.33277 -1.62268
LeftShoulder1  0.152834 2.06454 -2.45353
LeftArm  -52.9959 -4.95654 -18.6108
LeftForeArm  24.5855 -77.5368 -75.5132
LeftHand  -0.395949 3.93977 31.4085
RightShoulder  0.133267 -2.51668 5.74816
RightArm  -66.071 -11.0615 14.6889
RightForeArm  8.11707 76.591 65.5888
RightHand  -2.08479 2.32482 -30.8872
LeftUpLeg  -12.8733 20.9984 8.89478
LeftLeg  17.8607 4.3346 1.85262
LeftFoot  3.50623 2.02357 -15.6027
LeftToes  -4.0021e-011 8.38769e-011 -3.99229e-011
273
root  -1.5968 38.8967 -1.9774 25.007 -88.0545 -22.6066
RightUpLeg  -15.0115 -25.2057 -15.2752
RightLeg  21.4228 -18.9907 -7.69185
RightFoot  -11.2585 -0.089902 13.066
RightToes  -1.33073e-015 0 -3.6325e-017
Spine  22.2668 0.104798 1.75367
Spine1  -22.7662 0.295512 1.74153
HEad  -5.05944 3.76029 -1.38855
LeftShoulder1  0.0130195 2.96188 6.43187
LeftArm  -59.32 -9.37563 -13.785
LeftForeArm  -3.47833 -74.2286 -50.1437
LeftHand  -0.325915 4.23164 32.6176
RightShoulder  -0.00134914 -3.52125 0.237231
RightArm  -68.4875 -6.6014 8.53242
RightForeArm  -17.2688 72.2517 43.5903
RightHand  -2.01176 2.27747 -30.0395
LeftUpLeg  -17.7489 21.5158 10.5209
LeftLeg  26.8845 3.34567 2.18881
LeftFoot  -1.93491 1.30935 -15.7434
LeftToes  -4.0021e-011 8.38769e-011 -3.99229e-011
274
root  -0.976952 37.5742 -2.52247 59.5328 -89.6094 -58.1095
RightUpLeg  -21.148 -28.6546 -13.7334
RightLeg  30.9533 -11.5794 -7.7186
RightFoot  -11.1901 -0.0962483 14.017
RightToes  -1.33073e-015 0 -3.6325e-017
Spine  26.2775 0.651423 2.30028
Spine1  -22.0846 1.04934 -0.0954147
HEad  -12.1558 3.84382 -1.95325
LeftShoulder1  0.0285377 4.16487 13.9451
LeftArm  -67.0539 -10.1151 -6.92686
LeftForeArm  -25.2399 -66.7094 -30.6856
LeftHand  0.0350786 5.46717 34.675
RightShoulder  -0.0335053 -4.44803 -5.35629
RightArm  -72.4633 -2.77521 2.76358
RightForeArm  -35.9927 63.2422 26.3316
RightHand  -2.01822 2.29081 -30.0773
LeftUpLeg  -21.3502 23.3814 12.8409
LeftLeg  35.8612 2.22783 2.08978
LeftFoot  -7.46584 0.615202 -16.8284
LeftToes  -4.0021e-011 8.38769e-011 -3.99229e-011
275
root  -0.563415 36.464 -3.11953 163.279 -87.2614 -162.846
RightUpLeg  -26.2159 -30.0694 -13.6625
RightLeg  38.6222 -7.30851 -6.51255
RightFoot  -9.59453 -0.300124 15.2056
RightToes  -1.33073e-015 0 -3.6325e-017
Spine  27.2439 1.53232 0.468169
Spine1  -17.0512 1.66337 -0.180995
HEad  -20.0722 4.78184 -3.15121
LeftShoulder1  0.241498 6.55278 18.671
LeftArm  -72.9109 -8.4717 -1.70124
LeftForeArm  -36.8053 -58.2796 -20.9006
LeftHand  0.511822 6.95483 36.1128
RightShoulder  0.000117403 -5.34034 -9.54797
RightArm  -76.7679 0.469979 -1.77002
RightForeArm  -44.0237 53.3146 17.5715
RightHand  -2.0755 2.16087 -31.3921
LeftUpLeg  -22.7591 26.4276 14.3013
LeftLeg  41.5832 0.916478 1.28549
LeftFoot  -11.2439 0.0835924 -18.2215
LeftToes  -4.0021e-011 8.38769e-011 -3.99229e-011
276
root  -0.56653 36.1682 -3.72595 -173.572 -85.8668 173.198
RightUpLeg  -27.2877 -31.1712 -13.8916
RightLeg  40.8428 -4.59325 -4.56741
RightFoot  -8.81659 -0.434688 16.9654
RightToes  -1.33073e-015 0 -3.6325e-017
Spine  26.0855 2.06938 -1.22947
Spine1  -12.9794 1.78181 0.960201
HEad  -23.3823 5.89265 -4.29783
LeftShoulder1  0.538816 8.95299 21.0184
LeftArm  -74.7479 -7.25891 -3.66741
LeftForeArm  -38.4299 -56.5535 -19.7534
LeftHand  0.512429 6.96755 35.6143
RightShoulder  0.0294219 -5.81414 -11.0319
RightArm  -78.346 2.35491 -1.61016
RightForeArm  -44.3552 50.7661 16.1962
RightHand  -2.13112 2.04073 -32.6751
LeftUpLeg  -21.3495 28.1832 15.4536
LeftLeg  42.0973 0.144134 0.574755
LeftFoot  -11.5299 0.0409389 -19.6402
LeftToes  -4.0021e-011 8.38769e-011 -3.99229e-011
277
root  -0.920595 36.7548 -4.36686 -172.785 -85.3247 171.871
RightUpLeg  -24.288 -30.6103 -13.5454
RightLeg  37.8734 -4.6712 -4.13142
RightFoot  -9.18409 -0.396885 17.5327
RightToes  -1.33073e-015 0 -3.6325e-017
Spine  24.8561 1.88906 -0.749757
Spine1  -13.285 1.73412 0.280725
HEad  -20.0738 6.5233 -4.60547
LeftShoulder1  0.54484 9.23323 20.4673
LeftArm  -71.8883 -6.81114 -11.7939
LeftForeArm  -28.9726 -63.9606 -27.169
LeftHand  0.0624472 5.57122 33.9101
RightShoulder  -0.000609859 -5.22374 -9.25397
RightArm  -74.6226 1.46753 4.85438
RightForeArm  -37.6985 58.699 21.9851
RightHand  -2.22684 2.28844 -33.0251
LeftUpLeg  -17.7814 26.3833 16.6475
LeftLeg  37.6017 2.2094 2.12483
LeftFoot  -7.49206 0.764795 -21.0262
LeftToes  -4.0021e-011 8.38769e-011 -3.99229e-011
278
root  -1.41587 37.7949 -5.0145 -174.114 -85.0864 173.307
RightUpLeg  -20.0037 -27.8596 -12.3902
RightLeg  31.6681 -7.93473 -5.44447
RightFoot  -8.19846 -0.492301 16.0155
RightToes  -1.33073e-015 0 -3.6325e-017
Spine  23.4418 1.47346 0.977203
Spine1  -16.0986 1.73884 -1.98156
HEad  -13.0786 6.96331 -4.29533
LeftShoulder1  0.185903 7.13696 15.0012
LeftArm  -64.592 -5.10607 -19.0505
LeftForeArm  -5.6094 -73.4946 -46.5623
LeftHand  -0.164142 4.80813 33.198
RightShoulder  -0.00871932 -3.805 -4.65031
RightArm  -67.4466 -2.48852 13.9916
RightForeArm  -19.895 70.1134 37.1783
RightHand  -2.2924 2.48728 -33.1321
LeftUpLeg  -14.1058 22.0062 16.8791
LeftLeg  31.0558 9.36657 6.30969
LeftFoot  -0.575452 1.97114 -20.8895
LeftToes  -4.0021e-011 8.38769e-011 -3.99229e-011
279
root  -1.91969 38.8234 -5.62743 -168.418 -84.8287 168.435
RightUpLeg  -16.3519 -24.2104 -11.4637
RightLeg  24.4935 -12.7577 -6.48558
RightFoot  -5.1503 -0.784271 13.789
RightToes  -1.33073e-015 0 -3.6325e-017
Spine  21.0335 1.45567 1.1246
Spine1  -17.9405 1.69823 -2.70901
HEad  -6.62457 7.85555 -4.14187
LeftShoulder1  -0.0228188 4.20765 4.67916
LeftArm  -56.2235 -1.10603 -21.1882
LeftForeArm  26.6057 -77.6797 -75.4331
LeftHand  -0.0588507 5.16697 34.1616
RightShoulder  0.128458 -2.25362 1.92489
RightArm  -60.6989 -7.32305 20.4847
RightForeArm  6.51489 76.084 59.366
RightHand  -2.27581 2.32245 -33.5689
LeftUpLeg  -12.2306 19.5833 15.0455
LeftLeg  26.6268 18.0347 9.98993
LeftFoot  4.99683 2.55321 -17.8314
LeftToes  -4.0021e-011 8.38769e-011 -3.99229e-011
280
root  -2.32746 39.4996 -6.21507 -156.727 -84.7126 157.398
RightUpLeg  -13.5238 -21.2 -11.5027
RightLeg  19.1263 -16.8534 -6.57011
RightFoot  -2.67615 -0.998238 12.8447
RightToes  -1.33073e-015 0 -3.6325e-017
Spine  18.8571 1.61149 -0.553754
Spine1  -18.3536 1.55826 -1.61335
HEad  -2.97741 9.02511 -4.19527
LeftShoulder1  0.231734 1.80839 -6.32058
LeftArm  -50.4992 4.44981 -20.8674
LeftForeArm  46.3265 -77.9794 -94.8696
LeftHand  0.0137177 5.40427 35.128
RightShoulder  0.434127 -0.86825 9.16214
RightArm  -56.8393 -11.5652 23.0972
RightForeArm  21.9656 77.381 72.3946
RightHand  -2.18938 1.90036 -34.124
LeftUpLeg  -12.8411 22.8865 11.6758
LeftLeg  27.1657 19.504 10.8479
LeftFoot  4.22126 2.01955 -14.8457
LeftToes  -4.0021e-011 8.38769e-011 -3.99229e-011
281
root  -2.50014 39.6133 -6.70845 -147.87 -84.8345 148.355
RightUpLeg  -12.5453 -20.2512 -11.8362
RightLeg  18.9407 -18.3838 -6.92773
RightFoot  -2.99159 -0.992023 13.2758
RightToes  -1.33073e-015 0 -3.6325e-017
Spine  18.7403 1.431 -1.33207
Spine1  -18.2527 1.2953 -1.65492
HEad  -2.82428 9.6163 -4.18233
LeftShoulder1  0.605301 0.387607 -12.6435
LeftArm  -48.4398 9.99069 -22.2804
LeftForeArm  56.262 -77.4117 -106.844
LeftHand  -0.0990849 5.04394 35.3718
RightShoulder  0.759249 0.135015 14.1892
RightArm  -56.6242 -15.2096 24.3908
RightForeArm  28.7455 77.7339 80.3956
RightHand  -2.1483 1.59113 -34.9046
LeftUpLeg  -15.4601 28.4981 8.12426
LeftLeg  33.0364 13.054 9.23336
LeftFoot  -2.19284 1.25442 -15.6981
LeftToes  -4.0021e-011 8.38769e-011 -3.99229e-011
